<svg id="Layer_1" data-name="Layer 1" xmlns="http://www.w3.org/2000/svg" width="59.6139mm" height="21.5572mm" viewBox="0 0 168.9841 61.1071">
  <defs>
    <style>
      .cls-1 {
        fill: #397ec1;
      }

      .cls-2 {
        fill: #e83a7a;
      }

      .cls-3 {
        fill: #704fa0;
      }

      .cls-4 {
        fill: #64cae2;
      }

      .cls-5 {
        fill: #9c59a4;
      }
    </style>
  </defs>
  <title>MANO-Color</title>
  <g>
    <g>
      <path d="M116.4995,59.1L111.46,70.2135a2.3237,2.3237,0,0,1-.54.54,1.0228,1.0228,0,0,1-.585.2246h-0.27a1.125,1.125,0,0,1-.6074-0.2246,1.6193,1.6193,0,0,1-.5176-0.54L103.9018,59.1V83.2164a1.3414,1.3414,0,0,1-.3379.9219,1.2173,1.2173,0,0,1-.9668.3828,1.28,1.28,0,0,1-.9-0.3828,1.2221,1.2221,0,0,1-.4043-0.9219V53.2506a1.2236,1.2236,0,0,1,.4043-0.9219,1.2885,1.2885,0,0,1,.9-0.3828,1.3157,1.3157,0,0,1,1.3047.99l6.3438,13.8125,6.2539-13.8125a1.2907,1.2907,0,0,1,1.26-.99,1.3053,1.3053,0,0,1,1.3047,1.3047V83.2164a1.3053,1.3053,0,0,1-1.3047,1.3047,1.1631,1.1631,0,0,1-.9219-0.3828,1.346,1.346,0,0,1-.3379-0.9219V59.1Z" transform="translate(-29.3288 -25.8074)"/>
      <path d="M144.8989,82.8561a0.6925,0.6925,0,0,0,.0225.2021,0.52,0.52,0,0,1,.0225.1582c0,0.0605.0156,0.09,0.0449,0.09a1.2062,1.2062,0,0,1-.3369.8545,1.2613,1.2613,0,0,1-.9678.36,1.3457,1.3457,0,0,1-.7871-0.2705,1.1225,1.1225,0,0,1-.4727-0.72L139.95,73.6324h-7.918l-2.4746,9.8984a1.3679,1.3679,0,0,1-.4951.72,1.25,1.25,0,0,1-.7646.2705,1.1859,1.1859,0,0,1-.9678-0.4053,1.3719,1.3719,0,0,1-.3379-0.8994V82.9908l7.7842-30.1a1.3085,1.3085,0,0,1,1.3047-.9453,0.977,0.977,0,0,1,.6748.293,1.63,1.63,0,0,1,.45.7422V52.9361ZM139.23,71.068l-3.2393-13.543-3.2842,13.543H139.23Z" transform="translate(-29.3288 -25.8074)"/>
      <path d="M153.3169,53.4313a1.39,1.39,0,0,1,1.3047-1.3057,1.5277,1.5277,0,0,1,1.3047,1.17L168.66,78.0865V53.4313a1.2832,1.2832,0,0,1,.3818-0.9,1.2251,1.2251,0,0,1,.9229-0.4053,1.1784,1.1784,0,0,1,.877.4053,1.2844,1.2844,0,0,1,.3828.9V83.3961a1.2175,1.2175,0,0,1-.36,1.08,1.2028,1.2028,0,0,1-.54.2246,1.9534,1.9534,0,0,1-1.2148-.27,1.3911,1.3911,0,0,1-.4043-0.4951L155.8813,59.0553V83.3961a1.2008,1.2008,0,0,1-1.26,1.3047,1.3752,1.3752,0,0,1-.9-0.3369,1.19,1.19,0,0,1-.4043-0.9678V53.4313Z" transform="translate(-29.3288 -25.8074)"/>
      <path d="M180.3159,61.1246a9.4714,9.4714,0,0,1,.6523-3.5322,8.3579,8.3579,0,0,1,1.8672-2.8564,9.1278,9.1278,0,0,1,6.5684-2.6553,8.4256,8.4256,0,0,1,3.4648.7207,9.31,9.31,0,0,1,2.835,1.9346,8.8876,8.8876,0,0,1,1.9121,2.8789,9.11,9.11,0,0,1,.6973,3.5547V75.6578a8.8271,8.8271,0,0,1-.6973,3.4863,8.9,8.9,0,0,1-4.7471,4.77,8.6683,8.6683,0,0,1-3.4648.6973,8.8271,8.8271,0,0,1-3.4863-.6973,9.6834,9.6834,0,0,1-2.9023-1.89,8.9028,8.9028,0,0,1-1.9795-2.7451,7.753,7.753,0,0,1-.72-3.3066V61.1246Zm2.6094,14.623a5.5841,5.5841,0,0,0,.54,2.4072,6.8075,6.8075,0,0,0,1.417,2.002,6.5612,6.5612,0,0,0,2.0469,1.35,6.1748,6.1748,0,0,0,2.43.4951,5.7938,5.7938,0,0,0,2.4072-.5176,6.9783,6.9783,0,0,0,2.0254-1.3721,6.8436,6.8436,0,0,0,1.417-2.002,5.5982,5.5982,0,0,0,.54-2.4072V61.1246a6.6788,6.6788,0,0,0-.4951-2.5869,6.5147,6.5147,0,0,0-1.35-2.0693,6.1461,6.1461,0,0,0-2.0254-1.373,6.413,6.413,0,0,0-2.52-.4941,6.18,6.18,0,0,0-2.52.5166,6.5326,6.5326,0,0,0-3.4189,3.51,6.4326,6.4326,0,0,0-.4951,2.4971v14.623Z" transform="translate(-29.3288 -25.8074)"/>
    </g>
    <g>
      <path d="M110.7964,36.859a6.6466,6.6466,0,0,1-1.2041,4.2534,4.554,4.554,0,0,1-6.7607,0,6.5516,6.5516,0,0,1-1.2334-4.2241V33.796a6.636,6.636,0,0,1,1.2188-4.2583,4.5316,4.5316,0,0,1,6.7705.0049,6.7319,6.7319,0,0,1,1.209,4.2827V36.859Zm-1.1211-3.0825a5.7108,5.7108,0,0,0-.8975-3.502,3.4205,3.4205,0,0,0-5.1318-.0244,5.4964,5.4964,0,0,0-.9365,3.4287v3.18a5.6176,5.6176,0,0,0,.9268,3.5171,3.0961,3.0961,0,0,0,2.5752,1.1753,3.0329,3.0329,0,0,0,2.5811-1.1709,5.821,5.821,0,0,0,.8828-3.5215V33.7765Z" transform="translate(-29.3288 -25.8074)"/>
      <path d="M120.7368,37.64a6.6727,6.6727,0,0,1-.8486,3.7065,2.8489,2.8489,0,0,1-2.5361,1.2686,3.01,3.01,0,0,1-2.7412-1.4634v5.3262h-1.0732V31.8644h0.9951l0.0488,1.4438a2.9856,2.9856,0,0,1,2.7412-1.6387,2.9137,2.9137,0,0,1,2.5557,1.2095,6.52,6.52,0,0,1,.8584,3.6973V37.64Zm-1.082-.99a5.5276,5.5276,0,0,0-.63-2.9819,2.1853,2.1853,0,0,0-1.9648-.9551,2.5155,2.5155,0,0,0-2.4492,1.7446v5.5542A2.5272,2.5272,0,0,0,117.08,41.6a2.1552,2.1552,0,0,0,1.9355-.9551,5.4875,5.4875,0,0,0,.64-2.9429V36.65Z" transform="translate(-29.3288 -25.8074)"/>
      <path d="M126.7368,42.6149a3.6492,3.6492,0,0,1-2.917-1.22,5.2264,5.2264,0,0,1-1.0732-3.4727V36.6349a5.85,5.85,0,0,1,1.0146-3.6436,3.3226,3.3226,0,0,1,2.79-1.3218,3.1646,3.1646,0,0,1,2.6191,1.1216,5.5067,5.5067,0,0,1,.9219,3.4341v1.0142H123.82v0.5952a4.4314,4.4314,0,0,0,.7754,2.8,2.6265,2.6265,0,0,0,2.19.9854,3.1511,3.1511,0,0,0,2.5264-1.1416L129.8774,41.2A3.6355,3.6355,0,0,1,126.7368,42.6149Zm-0.1855-9.9312a2.3245,2.3245,0,0,0-1.9658.9023,4.6048,4.6048,0,0,0-.7559,2.6392h5.18V35.942Q128.9316,32.6842,126.5513,32.6837Z" transform="translate(-29.3288 -25.8074)"/>
      <path d="M133.4282,31.8644l0.0293,1.6782a3.921,3.921,0,0,1,1.1953-1.3657,2.816,2.816,0,0,1,1.6533-.5073q2.7612,0,2.8291,3.6777V42.42H138.062V35.464a3.6279,3.6279,0,0,0-.4971-2.0874,1.7645,1.7645,0,0,0-1.5322-.6733,2.1716,2.1716,0,0,0-1.5264.6392,4.0106,4.0106,0,0,0-1.0293,1.751V42.42h-1.083V31.8644h1.0342Z" transform="translate(-29.3288 -25.8074)"/>
      <path d="M153.4077,38.9274a2.5444,2.5444,0,0,0-.6777-1.873,6.7229,6.7229,0,0,0-2.5322-1.3071,8.006,8.006,0,0,1-2.7217-1.395,3.3628,3.3628,0,0,1-1.1406-2.6533,3.4256,3.4256,0,0,1,1.1211-2.6533,4.13,4.13,0,0,1,2.8975-1.0244,3.944,3.944,0,0,1,2.9658,1.19,4.2222,4.2222,0,0,1,1.1514,3.063h-1.1221a3.3078,3.3078,0,0,0-.8047-2.3169,2.8179,2.8179,0,0,0-2.19-.8828,2.9819,2.9819,0,0,0-2.1221.7271,2.4583,2.4583,0,0,0-.7754,1.8779,2.2927,2.2927,0,0,0,.7324,1.7559A6.4094,6.4094,0,0,0,150.52,34.65a9.7173,9.7173,0,0,1,2.4189,1.1025,3.6475,3.6475,0,0,1,1.21,1.3413,3.974,3.974,0,0,1,.3906,1.8145,3.4519,3.4519,0,0,1-1.127,2.6875,4.2727,4.2727,0,0,1-2.98,1.02,5.04,5.04,0,0,1-2.2773-.5122,3.8341,3.8341,0,0,1-1.61-1.4731,4.3041,4.3041,0,0,1-.58-2.2681h1.1123a3.0918,3.0918,0,0,0,.9072,2.3608,3.4159,3.4159,0,0,0,2.4482.8584,3.1381,3.1381,0,0,0,2.1611-.7222A2.4519,2.4519,0,0,0,153.4077,38.9274Z" transform="translate(-29.3288 -25.8074)"/>
      <path d="M156.4214,36.6056a5.7239,5.7239,0,0,1,1.0342-3.6094,3.6806,3.6806,0,0,1,5.6426-.02,5.7115,5.7115,0,0,1,1.0391,3.6v1.1216a5.6433,5.6433,0,0,1-1.0391,3.6191,3.7,3.7,0,0,1-5.6035.0293,5.529,5.529,0,0,1-1.0732-3.4922V36.6056Zm1.0928,1.0869a4.892,4.892,0,0,0,.7363,2.8652,2.5524,2.5524,0,0,0,4.0869.0386,4.9993,4.9993,0,0,0,.7178-2.8745V36.6012a4.8909,4.8909,0,0,0-.7422-2.87,2.486,2.486,0,0,0-4.0381-.0244,4.809,4.809,0,0,0-.7607,2.8159v1.1694Z" transform="translate(-29.3288 -25.8074)"/>
      <path d="M172.2925,41.1612a3.0368,3.0368,0,0,1-2.78,1.4536,2.5159,2.5159,0,0,1-2.165-.9951,4.949,4.949,0,0,1-.7422-2.9268V31.8644h1.0732v6.7993a3.8478,3.8478,0,0,0,.5078,2.1753,1.6624,1.6624,0,0,0,1.4629.7417,2.5,2.5,0,0,0,2.624-1.99V31.8644h1.0928V42.42H172.312Z" transform="translate(-29.3288 -25.8074)"/>
      <path d="M180.39,32.879a4.0508,4.0508,0,0,0-.6826-0.0684,2.04,2.04,0,0,0-1.5078.6147,3.4824,3.4824,0,0,0-.8633,1.707V42.42h-1.083V31.8644h1.0635l0.02,1.5806a2.546,2.546,0,0,1,2.42-1.7754,1.3523,1.3523,0,0,1,.6533.1265Z" transform="translate(-29.3288 -25.8074)"/>
      <path d="M185.4429,41.6a2.2929,2.2929,0,0,0,1.7363-.6313,2.6931,2.6931,0,0,0,.6533-1.8174h1.0439a3.62,3.62,0,0,1-1.0342,2.5415,3.3209,3.3209,0,0,1-2.3994.9219,3.4186,3.4186,0,0,1-2.8437-1.2051,5.7252,5.7252,0,0,1-.98-3.5752V36.547a5.85,5.85,0,0,1,.9609-3.6484,3.4005,3.4005,0,0,1,2.8535-1.229,3.1929,3.1929,0,0,1,2.4775.99,4.157,4.157,0,0,1,.9658,2.7651h-1.0439a3.212,3.212,0,0,0-.6631-2.0239,2.1644,2.1644,0,0,0-1.7363-.7173,2.3411,2.3411,0,0,0-2.0635.9453,5.1243,5.1243,0,0,0-.6582,2.9038v1.1987a5.1222,5.1222,0,0,0,.6631,2.9478A2.3773,2.3773,0,0,0,185.4429,41.6Z" transform="translate(-29.3288 -25.8074)"/>
      <path d="M194.6518,42.6149a3.6492,3.6492,0,0,1-2.917-1.22,5.2264,5.2264,0,0,1-1.0732-3.4727V36.6349a5.85,5.85,0,0,1,1.0146-3.6436,3.3226,3.3226,0,0,1,2.79-1.3218,3.1646,3.1646,0,0,1,2.6191,1.1216,5.5067,5.5067,0,0,1,.9219,3.4341v1.0142h-6.2725v0.5952a4.4314,4.4314,0,0,0,.7754,2.8,2.6265,2.6265,0,0,0,2.19.9854,3.1511,3.1511,0,0,0,2.5264-1.1416L197.7925,41.2A3.6355,3.6355,0,0,1,194.6518,42.6149Zm-0.1855-9.9312a2.3245,2.3245,0,0,0-1.9658.9023,4.6048,4.6048,0,0,0-.7559,2.6392h5.18V35.942Q196.8467,32.6842,194.4663,32.6837Z" transform="translate(-29.3288 -25.8074)"/>
    </g>
  </g>
  <g>
    <g>
      <path class="cls-1" d="M67.5449,28.4964c0.8984,0.1332,1.8048.2275,2.6929,0.4109,0.8143,0.1681,1.6144.4143,2.41,0.66C73.3216,29.7742,73.9924,30,74.643,30.27a22.159,22.159,0,0,1,3.9861,2.148,23.248,23.248,0,0,1,6.56,6.7041,22.82,22.82,0,0,1,2.7871,6.1893,21.8373,21.8373,0,0,1,.7485,4.207,23.3875,23.3875,0,0,1-.1541,5.0367,0.7733,0.7733,0,0,0,0,.1092,22.8752,22.8752,0,0,1-1.342,4.8533,21.2709,21.2709,0,0,1-2.6421,4.72A20.9594,20.9594,0,0,1,81.34,67.6922a20.011,20.011,0,0,1-3.8636,2.5893A19.465,19.465,0,0,1,72.2842,72.11a20.4483,20.4483,0,0,1-3.7327.3928,24.742,24.742,0,0,1-2.6343-.1552,16.0771,16.0771,0,0,1-3.7391-.8353c-0.9506-.3351-1.8831-0.7257-2.8075-1.1286a14.0791,14.0791,0,0,1-1.2771-.7139,2.66,2.66,0,0,0,1.3087-.1353,29.1583,29.1583,0,0,0,6.1426-2.5933,36.3381,36.3381,0,0,0,6.3742-4.3252c0.1947-.1686,3.4515-3.7278,3.53-3.8472,0.364-.5539.764-1.09,1.0718-1.6736,0.5165-.98,1.0233-1.971,1.4406-2.9955a16.917,16.917,0,0,0,.9465-3.4311,18.0494,18.0494,0,0,0,.3277-3.4091c-0.0135-.9671-0.1017-1.9358-0.2074-2.8983a17.8434,17.8434,0,0,0-.9313-3.9135,20.5055,20.5055,0,0,0-1.6933-3.6605,18.1207,18.1207,0,0,0-2.259-3.1338,31.6107,31.6107,0,0,0-2.3973-2.3414,20.5726,20.5726,0,0,0-2.14-1.5927C68.9438,29.2758,68.2341,28.9014,67.5449,28.4964Z" transform="translate(-29.3288 -25.8074)"/>
      <path class="cls-2" d="M37.7366,73.8916c-0.7911-.8006-1.61-1.5762-2.3665-2.4081A20.1194,20.1194,0,0,1,32.8836,68a23.2991,23.2991,0,0,1-2.7089-7.1821,23.6659,23.6659,0,0,1-.4335-3.9559,22.94,22.94,0,0,1,.5153-5.4761A21.9441,21.9441,0,0,1,31.63,47.1649a22.2087,22.2087,0,0,1,4.2671-6.43c0.1065-.112.2026-0.2339,0.3036-0.3513l0.064-.1356-0.0027.0043a1.2338,1.2338,0,0,0,.21-0.12c0.6469-.56,1.26-1.1633,1.9411-1.6777a21.02,21.02,0,0,1,6.7551-3.48,20.5838,20.5838,0,0,1,4.4818-.8414,20.8472,20.8472,0,0,1,3.0353-.0141,20.3708,20.3708,0,0,1,4.0278.7069,15.8024,15.8024,0,0,1,3.796,1.542c0.86,0.5156,1.7536.9862,2.5678,1.5672a18.7364,18.7364,0,0,1,5.0215,5.3592c0.5864,0.9368,1.0579,1.9454,1.5815,2.9214a2.8987,2.8987,0,0,0-.5524-0.421c-0.4644-.205-0.9449-0.3769-1.4273-0.5368A31.27,31.27,0,0,0,60.09,43.8242c-1.6015-.1166-3.2134-0.105-4.8209-0.1175a14.4948,14.4948,0,0,0-1.57.1515c-0.76.1257-1.53,0.2074-2.276,0.3879-1.04.2515-2.0673,0.56-3.0892,0.879a11.4769,11.4769,0,0,0-1.2152.5319,2.0215,2.0215,0,0,0-.2835.0895,19.895,19.895,0,0,0-7.3836,6.0425,19.2591,19.2591,0,0,0-2.4347,4.2525c-0.3606.8711-.67,1.7664-0.9475,2.6677a9.6215,9.6215,0,0,0-.3209,1.6522c-0.14,1.134-.2821,2.27-0.3473,3.41a13.4062,13.4062,0,0,0,.0981,2.1763c0.0959,0.8983.213,1.7985,0.3961,2.6823a19.8774,19.8774,0,0,0,1.44,4.3131C37.48,73.2545,37.6034,73.5752,37.7366,73.8916Z" transform="translate(-29.3288 -25.8074)"/>
      <path class="cls-3" d="M58.0936,69.67a14.0694,14.0694,0,0,0,1.277.7139c0.9244,0.4029,1.857.7935,2.8075,1.1286a16.0771,16.0771,0,0,0,3.7391.8353,24.742,24.742,0,0,0,2.6343.1552,20.4483,20.4483,0,0,0,3.7327-.3928,19.465,19.465,0,0,0,5.1924-1.8288A20.011,20.011,0,0,0,81.34,67.6922a20.9594,20.9594,0,0,0,3.2463-3.4553,21.2709,21.2709,0,0,0,2.6421-4.72,22.8752,22.8752,0,0,0,1.342-4.8533c0.1238,0.678.2616,1.3539,0.3666,2.0348A12.8937,12.8937,0,0,1,89.099,58.23c0.0343,1.0327.0834,2.0693,0.0288,3.0992a20.0079,20.0079,0,0,1-.366,2.9451c-0.2233,1.09-.5405,2.1645-0.8719,3.2286a16.7366,16.7366,0,0,1-.8767,2.2866,19.6324,19.6324,0,0,1-1.9147,3.3245c-0.4656.62-.9133,1.2534-1.3839,1.8695-0.18.2354-.4029,0.4374-0.6028,0.6578-0.1822.2009-.3428,0.4245-0.5424,0.6057-0.6466.587-1.3044,1.1618-1.9623,1.7363a19.52,19.52,0,0,1-2.6978,1.8908,19.8929,19.8929,0,0,1-5.65,2.3858c-0.6848.1688-1.3795,0.2974-2.07,0.4444a6.5893,6.5893,0,0,1-.7821.15c-0.9131.0669-1.8272,0.14-2.742,0.1582a14.502,14.502,0,0,1-1.9282-.1034,20.4966,20.4966,0,0,1-2.6285-.4,27.0368,27.0368,0,0,1-3.5329-1.0919,19.943,19.943,0,0,1-3.0178-1.5621,24.2063,24.2063,0,0,1-2.7292-1.9777A17.6756,17.6756,0,0,1,49.93,74.7376a19.1006,19.1006,0,0,1-2.888-5.5177c-0.2466-.768-0.4552-1.5509-0.6323-2.338a15.5267,15.5267,0,0,1-.4043-3.6982c0.0226-1.2048.1177-2.4094,0.2161-3.6111a10.1611,10.1611,0,0,1,.2642-1.2751,2.9367,2.9367,0,0,0,.1839.7071,10.6133,10.6133,0,0,0,.7919,1.24,33.6786,33.6786,0,0,0,4.7974,5.1921c0.7068,0.623,1.4025,1.2641,2.154,1.83,0.9273,0.6978,1.9046,1.33,2.8669,1.98,0.2244,0.1517.4755,0.264,0.7143,0.3944l0.0909,0.03Z" transform="translate(-29.3288 -25.8074)"/>
      <path class="cls-4" d="M69.68,46.2148c-0.5237-.976-0.9952-1.9847-1.5815-2.9214a18.7364,18.7364,0,0,0-5.0215-5.3592c-0.8141-.581-1.7074-1.0515-2.5678-1.5672a15.8024,15.8024,0,0,0-3.796-1.542,20.3708,20.3708,0,0,0-4.0278-.7069,20.8472,20.8472,0,0,0-3.0353.0141,20.5838,20.5838,0,0,0-4.4818.8414,21.02,21.02,0,0,0-6.7551,3.48c-0.6809.5143-1.2942,1.118-1.9411,1.6777a1.2337,1.2337,0,0,1-.21.12c0.2533-.5415.4894-1.0919,0.7628-1.6231a22.6661,22.6661,0,0,1,4.1543-5.6581,23.364,23.364,0,0,1,12.3362-6.4531,22.5821,22.5821,0,0,1,5.3034-.3155,19.9256,19.9256,0,0,1,5.4014,1c1.0043,0.3434,1.9805.7691,2.9695,1.1576,0.1181,0.0464.2368,0.0913,0.3551,0.1369,0.6891,0.405,1.3988.7795,2.0621,1.2233a20.5726,20.5726,0,0,1,2.14,1.5927,31.6107,31.6107,0,0,1,2.3973,2.3414,18.0324,18.0324,0,0,1,2.2336,3.0906,20.5607,20.5607,0,0,1,1.6962,3.6392,17.9383,17.9383,0,0,1,.9538,3.9781c0.1057,0.9625.1938,1.9312,0.2074,2.8983a18.0494,18.0494,0,0,1-.3277,3.4091A16.917,16.917,0,0,1,77.9614,54.1c-0.4172,1.0245-.9241,2.0156-1.4406,2.9955-0.3078.584-.7078,1.12-1.0718,1.6736-0.0392.06-.3194,0.4252-0.6024,0.7911s-2.2863,2.3689-2.3352,2.4285c0.0021-.5159-0.18-6.7226-0.4674-8.1727a40.6743,40.6743,0,0,0-1.3812-5.1692c-0.2859-.8-0.6286-1.5792-0.9456-2.3678l-0.0383-.07Z" transform="translate(-29.3288 -25.8074)"/>
      <g>
        <polygon class="cls-5" points="8.408 48.084 8.407 48.082 8.405 48.08 8.408 48.084"/>
        <path class="cls-5" d="M69.4071,82.8534c-0.9131.0669-1.8272,0.14-2.742,0.1582a14.5024,14.5024,0,0,1-1.9282-.1034,20.4971,20.4971,0,0,1-2.6285-.4,27.0375,27.0375,0,0,1-3.5329-1.0919,19.9432,19.9432,0,0,1-3.0178-1.5621,24.2064,24.2064,0,0,1-2.7292-1.9777A17.6756,17.6756,0,0,1,49.93,74.7376a19.1006,19.1006,0,0,1-2.888-5.5177c-0.2466-.768-0.4552-1.5509-0.6323-2.338a15.5267,15.5267,0,0,1-.4043-3.6982c0.0226-1.2048.1177-2.4094,0.2161-3.6111a10.1613,10.1613,0,0,1,.2642-1.2751c0.1152-.5116.2132-1.0278,0.3488-1.534A36.6832,36.6832,0,0,1,48.73,51.5317c0.0252-.0574.04-0.1191,0.06-0.1788a1.067,1.067,0,0,0,.0536-0.0924,30.522,30.522,0,0,1,2.9519-5.3172,5.62,5.62,0,0,1,1.9031-2.085c-0.76.1257-1.53,0.2074-2.276,0.3879-1.04.2515-2.0673,0.56-3.0892,0.879a11.4766,11.4766,0,0,0-1.2151.5318,2.0273,2.0273,0,0,0-.2837.09,19.8951,19.8951,0,0,0-7.3836,6.0425,19.2592,19.2592,0,0,0-2.4347,4.2525c-0.3606.8711-.67,1.7664-0.9475,2.6677a9.6215,9.6215,0,0,0-.3209,1.6522c-0.14,1.134-.2821,2.27-0.3473,3.41a13.4061,13.4061,0,0,0,.0981,2.1763c0.0959,0.8983.213,1.7985,0.3961,2.6823a19.8774,19.8774,0,0,0,1.44,4.3131c0.1436,0.3106.2672,0.63,0.4,0.9459L37.79,73.9436c0.4329,0.705.8492,1.4208,1.3022,2.1127a21.2137,21.2137,0,0,0,3.8429,4.3908,23.0393,23.0393,0,0,0,12.1058,5.467,20.5623,20.5623,0,0,0,3.999.1706c0.87-.0555,1.7435-0.1153,2.6058-0.24a22.6169,22.6169,0,0,0,4.2113-1.0608,26.7119,26.7119,0,0,0,4.2408-1.96,0.396,0.396,0,0,0,.0912-0.121A6.59,6.59,0,0,1,69.4071,82.8534Z" transform="translate(-29.3288 -25.8074)"/>
      </g>
    </g>
    <path d="M89.2941,58.7012l-0.0132-.3844a13.0838,13.0838,0,0,0-.1628-1.5437c-0.0613-.3963-0.1346-0.7939-0.2081-1.1848a0.7236,0.7236,0,0,0-.12-1.2342,23.5133,23.5133,0,0,0,.1162-4.7467,22.0983,22.0983,0,0,0-.6285-3.7432,0.7233,0.7233,0,0,0-.3639-1.2785,22.9946,22.9946,0,0,0-2.5588-5.421,23.4675,23.4675,0,0,0-6.5875-6.7327,22.3624,22.3624,0,0,0-4.0042-2.1576c-0.574-.2375-1.2105-0.4619-2.0037-0.706-0.7864-.2422-1.6-0.4925-2.4194-0.6616-0.5317-.11-1.0753-0.1884-1.6084-0.2611a0.7232,0.7232,0,0,0-1.2694-.2234l-0.148-.057c-0.3073-.1205-0.6132-0.2451-0.9194-0.3694-0.6678-.2711-1.3583-0.5517-2.0524-0.789a18.2508,18.2508,0,0,0-2.57-.6713,0.7268,0.7268,0,0,0-1.422-.2134q-0.7007-.0808-1.4371-0.1205a22.8175,22.8175,0,0,0-5.3267.3167,23.4655,23.4655,0,0,0-12.3889,6.4808,22.8549,22.8549,0,0,0-4.1724,5.6832c-0.147.2854-.2831,0.5783-0.416,0.8683a0.7213,0.7213,0,0,0-.1812-0.0255,0.7286,0.7286,0,0,0-.5176,1.2416,22.4161,22.4161,0,0,0-4.2786,6.4507,22.1717,22.1717,0,0,0-1.38,4.2408,23.17,23.17,0,0,0-.5174,5.5c0.0147,0.5194.05,1.03,0.0946,1.5345a0.7246,0.7246,0,0,0,.1638,1.4112c0.052,0.3473.11,0.69,0.1772,1.0267a23.4913,23.4913,0,0,0,2.72,7.2127A20.2006,20.2006,0,0,0,35.39,71.6441c0.5261,0.5782,1.09,1.1372,1.6353,1.6781,0.0931,0.0923.1854,0.1855,0.2784,0.278a0.7267,0.7267,0,0,0,.8632,1.0968l0.0292,0.0481c0.29,0.48.589,0.9753,0.9015,1.4525a21.4238,21.4238,0,0,0,3.8611,4.412,23.0818,23.0818,0,0,0,5.8658,3.7229,0.7278,0.7278,0,0,0,1.3281.5373A23.0346,23.0346,0,0,0,55.1171,86.1c0.2146,0.0282.4238,0.0516,0.632,0.074l-0.0011.0112a0.7272,0.7272,0,0,0,1.4478.0995c0.2848,0.0124.5661,0.0206,0.8407,0.0206,0.3748,0,.7406-0.0115,1.1-0.0343,0.9278-.0592,1.7652-0.1182,2.613-0.24a22.5989,22.5989,0,0,0,4.23-1.0655,25.3733,25.3733,0,0,0,3.75-1.6885,0.7272,0.7272,0,0,0,1.23-.5239c0.4622-.0945.9393-0.192,1.4055-0.307a20.1024,20.1024,0,0,0,5.6792-2.3977,19.7265,19.7265,0,0,0,2.7119-1.9013c0.6464-.5646,1.3146-1.1482,1.9621-1.7363a3.9364,3.9364,0,0,0,.3658-0.3987c0.0606-.0724.1212-0.145,0.1844-0.2148,0.0693-.0764.1412-0.15,0.2133-0.2244a5.0424,5.0424,0,0,0,.3954-0.4405c0.2294-.3.4525-0.6057,0.6758-0.9108a0.726,0.726,0,0,0,.8576-1.1672,20.8369,20.8369,0,0,0,1.775-3.1325,16.7847,16.7847,0,0,0,.8825-2.3009c0.32-1.0286.6478-2.1327,0.874-3.2372a20.1941,20.1941,0,0,0,.3679-2.96C89.3577,60.5172,89.3253,59.5941,89.2941,58.7012ZM77.5754,69.3323a1.0412,1.0412,0,0,0-1.0413,1.0413,1.03,1.03,0,0,0,.0543.3165q-0.6723.3069-1.3384,0.5557a1.038,1.038,0,0,0-1.9472.504,1.0213,1.0213,0,0,0,.01.1018c-0.3241.0817-.6487,0.1569-0.9749,0.22a20.3746,20.3746,0,0,1-3.5347.3847,1.0345,1.0345,0,0,0-.91-0.9215V66.7534a1.0342,1.0342,0,0,0,.8323-1.4472,32.8722,32.8722,0,0,0,2.6651-1.938,1.8707,1.8707,0,0,0,3.2364-1.0124l9.89,0.7688a1.0341,1.0341,0,0,0,.3307.721c-0.0963.1362-.1927,0.2723-0.2919,0.4055a20.9159,20.9159,0,0,1-3.2248,3.4325,20.213,20.213,0,0,1-2.9225,2.071A1.0366,1.0366,0,0,0,77.5754,69.3323ZM70.23,82.0215a0.7289,0.7289,0,0,0-.7289.7289c0,0.0167.0038,0.0322,0.0049,0.0486l-0.0288.004-0.27.02c-0.8078.06-1.6428,0.1217-2.4635,0.1377-0.356.0063-.732-0.0053-1.1291-0.0322-0.2513-.0171-0.5092-0.039-0.7816-0.07l-0.2911-.0329a17.937,17.937,0,0,1-2.32-.3642,27.3241,27.3241,0,0,1-3.514-1.0857,19.702,19.702,0,0,1-2.9969-1.5517c-0.1628-.1005-0.327-0.2088-0.4911-0.3165a0.9877,0.9877,0,0,0,.0637-0.82l11.61-5.5683a1.0359,1.0359,0,0,0,1.9062-.4217,20.5956,20.5956,0,0,0,3.5829-.3891c0.3279-.0631.6541-0.1386,0.98-0.2206a1.0376,1.0376,0,0,0,.5071.5852l-3.5014,9.3632A0.73,0.73,0,0,0,70.23,82.0215ZM38.6166,73.9266a0.7219,0.7219,0,0,0-.1286-0.33l7.2929-5.8886a0.96,0.96,0,0,0,.8564.2856c0.1215,0.4629.2509,0.9136,0.3894,1.3445a18.8562,18.8562,0,0,0,2.6624,5.2089,1.0365,1.0365,0,0,0-.3037.5284ZM49.7544,34.3648A20.9039,20.9039,0,0,1,52.77,34.35c0.4824,0.0389.9465,0.0911,1.3978,0.1547,0,0.0111-.0033.0216-0.0033,0.0328a1.0391,1.0391,0,0,0,2.0158.3567c0.1987,0.05.396,0.1018,0.59,0.1579a15.7311,15.7311,0,0,1,3.764,1.5282c0.1938,0.1162.39,0.2293,0.5858,0.3427a1.023,1.023,0,0,0,.0853.9386L55.174,42.7a1.8723,1.8723,0,0,0-3.2566,1.2627c0,0.06.0035,0.1181,0.0089,0.1762-0.1464.0287-.2923,0.0594-0.4367,0.0944-1.0632.257-2.1156,0.5749-3.0942,0.88a6.0874,6.0874,0,0,0-.82.3449,1.0357,1.0357,0,0,0-.7347-0.5069l0.3947-9.38A1.038,1.038,0,0,0,48.2,34.5387C48.729,34.4561,49.2462,34.3979,49.7544,34.3648ZM60.71,27.18a0.6782,0.6782,0,0,0,.4581.0723L65.43,39.4218a1.0388,1.0388,0,0,0-.2271.1512,18.6151,18.6151,0,0,0-1.972-1.6277c-0.0745-.0531-0.1515-0.1032-0.2274-0.1547a1.03,1.03,0,0,0,.1226-0.48,1.04,1.04,0,0,0-1.8915-.5982c-0.193-.1117-0.3862-0.223-0.5772-0.3375a15.9469,15.9469,0,0,0-3.8209-1.5531c-0.1984-.0573-0.4-0.11-0.6027-0.1611a1.0231,1.0231,0,0,0,.0123-0.1222,1.0382,1.0382,0,0,0-.44-0.8476Zm14.653,8.2036c0.0567,0.08.1133,0.16,0.17,0.2426,0.04,0.0579.0791,0.1189,0.1186,0.1782,0.0517,0.0776.1034,0.154,0.1552,0.234,0.0441,0.068.0883,0.1394,0.1324,0.2093,0.0476,0.0754.0952,0.1493,0.143,0.2269s0.0947,0.1569.1421,0.2357c0.0432,0.0718.0862,0.1421,0.13,0.2158,0.1,0.1689.1915,0.3414,0.2861,0.5127,0.0685,0.1242.1405,0.2465,0.2064,0.3721,0.08,0.1522.1527,0.3072,0.2287,0.4609,0.0732,0.1483.15,0.2951,0.2192,0.445,0.0526,0.1133.0992,0.2286,0.15,0.3426,0.0853,0.193.1723,0.3853,0.2515,0.5806,0.0421,0.1039.0785,0.2091,0.1188,0.3134,0.08,0.2081.162,0.4158,0.2353,0.6261l0.0019,0.0056a1.0383,1.0383,0,0,0,.4707,1.9652,1.0164,1.0164,0,0,0,.111-0.0112l0.0126,0.05c0.0342,0.1426.0654,0.2836,0.0952,0.4238l0.0133,0.06c0.0312,0.15.06,0.2976,0.0858,0.4447l0.0059,0.0307q0.04,0.2282.0726,0.4526l0.0025,0.0158q0.0334,0.2324.0585,0.4614c0.0942,0.8571.1924,1.87,0.2065,2.8841a16.735,16.735,0,0,1-.2432,2.8976q-0.0381.2374-.0822,0.4858c-0.087.4891-.1843,0.95-0.2926,1.3873-0.0155-.0007-0.03-0.0046-0.0459-0.0046a1.04,1.04,0,0,0-1.0382,1.0109l-4.2719.5183a1.0254,1.0254,0,0,0-1.1949-.7789,35.9615,35.9615,0,0,0-1.1626-4.1726c-0.0794-.222-0.1658-0.4429-0.2525-0.6632a1.8715,1.8715,0,0,0-.0052-3.3963l3.684-9.5147a0.9956,0.9956,0,0,0,.81-0.1234c0.056,0.075.1121,0.149,0.1679,0.2264C75.2928,35.2833,75.3277,35.3345,75.3626,35.384ZM62.3035,71.4787c-0.6816-.24-1.3505-0.509-1.9687-0.7693A1.8561,1.8561,0,0,0,60.42,69.458a30.5455,30.5455,0,0,0,5.2649-2.3274c0.4469-.2454.8751-0.4918,1.2947-0.739a1.0325,1.0325,0,0,0,.6728.3618v4.7812a1.0369,1.0369,0,0,0-.9019.8413c-0.25-.0214-0.4977-0.0443-0.7392-0.0686A15.992,15.992,0,0,1,62.3035,71.4787Zm5.4695-6.7958a1.0413,1.0413,0,0,0-1.0413,1.0413,1.03,1.03,0,0,0,.115.4665c-0.4141.2437-.8364,0.4868-1.2773,0.7289a30.2871,30.2871,0,0,1-5.227,2.3108,1.8731,1.8731,0,0,0-3.3071-.2719q-0.125-.0837-0.25-0.1677c-0.7338-.4913-1.4925-0.9993-2.2077-1.5373-0.2683-.2018-0.5307-0.4163-0.7895-0.6349a1.03,1.03,0,0,0,.1351-0.5034,1.0372,1.0372,0,0,0-1.6577-.8352,33.6393,33.6393,0,0,1-4.609-5.0177c-0.0476-.0642-0.0906-0.1332-0.137-0.1989a1.8729,1.8729,0,0,0-.3967-3.4368,36.8108,36.8108,0,0,1,1.8142-4.9492,1.2547,1.2547,0,0,0,.047-0.1339l0.0219-.0569a0.6981,0.6981,0,0,0,.0444-0.0787,30.3574,30.3574,0,0,1,2.937-5.2917c0.1125-.1548.22-0.3146,0.3282-0.4748q0.102-.1513.2071-0.3025a1.8721,1.8721,0,0,0,3.1432-1.3766l-0.0015-.0293L56.12,43.9358c1.33,0.0073,2.7046.0146,4.0486,0.1125a30.9662,30.9662,0,0,1,7.5746,1.4255c0.1236,0.0411.2393,0.0805,0.3507,0.1193a1.8737,1.8737,0,0,0,2.2843,2.5388c0.0857,0.2179.1712,0.4362,0.25,0.655a35.8245,35.8245,0,0,1,1.158,4.1609,1.0377,1.0377,0,0,0,.3443,1.9876c0.1324,1.4235.2322,3.72,0.2878,5.3287a1.8717,1.8717,0,0,0-1.1784,2.9171A32.6142,32.6142,0,0,1,68.6014,65.1,1.0362,1.0362,0,0,0,67.773,64.6829ZM50.3993,74.2637a1.0306,1.0306,0,0,0-.5161.1419,18.63,18.63,0,0,1-2.6279-5.1409c-0.1365-.425-0.2642-0.87-0.3841-1.3262a1.0393,1.0393,0,0,0-.3621-2.0141c-0.0269,0-.0521.0059-0.0784,0.0079a14.7034,14.7034,0,0,1-.2052-2.6592c0.0183-.974.0842-1.9454,0.1664-2.9847a1.8933,1.8933,0,0,0,.2149.0132A1.8663,1.8663,0,0,0,47.3,60.1677c0.0552,0.0788.1069,0.1611,0.1639,0.238a33.8578,33.8578,0,0,0,4.627,5.04,1.0337,1.0337,0,0,0,.3791,1.6247l-1.9213,7.208A1.0292,1.0292,0,0,0,50.3993,74.2637ZM42.67,49.5388a1.0327,1.0327,0,0,0-.2029-0.6127q0.5227-.4581,1.0742-0.8767a19.713,19.713,0,0,1,2.28-1.4816,1.0359,1.0359,0,0,0,1.8486-.8885c0.0587-.0283.1178-0.0567,0.1773-0.0848a4.8721,4.8721,0,0,1,.62-0.2516c0.7311-.2282,1.5032-0.4634,2.2893-0.6744q0.393-.1055.79-0.2018c0.1382-.0335.2781-0.0632,0.4188-0.0908a1.8669,1.8669,0,0,0,.3874.786c-0.08.1145-.1584,0.23-0.236,0.345-0.1064.1577-.2126,0.3153-0.3233,0.4678a30.55,30.55,0,0,0-2.9612,5.3328,0.4564,0.4564,0,0,1-.03.0519l-0.0479.1137a0.9339,0.9339,0,0,1-.0371.1074,37.0668,37.0668,0,0,0-1.83,4.9956,1.8157,1.8157,0,0,0-1.0884.1619l-3.561-6.358A1.0375,1.0375,0,0,0,42.67,49.5388ZM61.3542,38.0507a1.0335,1.0335,0,0,0,1.5144-.0612c0.0745,0.0505.15,0.1,0.2232,0.1518A18.3693,18.3693,0,0,1,65.04,39.75a1.0385,1.0385,0,0,0,1.4064,1.48,19.1994,19.1994,0,0,1,1.63,2.2325c0.2624,0.4193.5037,0.8591,0.7358,1.2993a1.8814,1.8814,0,0,0-.6055.6167c-0.1225-.0429-0.2511-0.0867-0.3883-0.1322a31.2221,31.2221,0,0,0-7.6328-1.4372c-1.3519-.0984-2.7309-0.1057-4.0648-0.113l-0.4767-.0029a1.8619,1.8619,0,0,0-.3192-0.8058Zm14.07,20.741c-0.0449.0587-.638,0.7143-1.5987,1.7622a1.8652,1.8652,0,0,0-1.0535-.3242c-0.0387,0-.0764.0035-0.1145,0.0058-0.0559-1.6056-.1554-3.8794-0.2874-5.31a1.039,1.039,0,0,0,.8736-1.0244l-0.0005-.0052,4.2589-.5167a1.04,1.04,0,0,0,.4605.666c-0.0137.0345-.0266,0.07-0.04,0.1042-0.43,1.0566-.9661,2.0935-1.4344,2.9821a12.6569,12.6569,0,0,1-.7547,1.2013C75.6283,58.4862,75.524,58.6393,75.4237,58.7917ZM74.0565,35.0442l-3.6837,9.514a1.8663,1.8663,0,0,0-1.349.0879c-0.2338-.4436-0.4773-0.8872-0.7433-1.3122a19.4345,19.4345,0,0,0-1.648-2.257,1.0327,1.0327,0,0,0,.2032-1.1426L73.78,34.8349A1.0386,1.0386,0,0,0,74.0565,35.0442Zm-27.0619.5185L46.6,44.9424a1.035,1.035,0,0,0-.76.4195l-8.7021-4.9448a0.6992,0.6992,0,0,0-.05-0.4693c0.0688-.0619.1387-0.1225,0.2074-0.1846,0.4159-.3757.8461-0.7641,1.297-1.1045a20.7218,20.7218,0,0,1,6.7106-3.4579c0.3063-.09.6058-0.1708,0.9019-0.2465A1.04,1.04,0,0,0,46.9946,35.5627Zm-9.95,5.078,8.6738,4.9287a1.0276,1.0276,0,0,0-.0088.7854,19.9531,19.9531,0,0,0-2.3133,1.5028q-0.5617.4257-1.0938,0.893a1.036,1.036,0,0,0-1.48,1.4388,20.7946,20.7946,0,0,0-1.3611,1.624,19.4573,19.4573,0,0,0-1.9919,3.262,1.0332,1.0332,0,0,0-.2823-0.0576L36.4551,40.98A0.7257,0.7257,0,0,0,37.0443,40.6407ZM37.12,57.0938a1.04,1.04,0,0,0,.5656-1.9137,19.21,19.21,0,0,1,1.9674-3.2214,20.5276,20.5276,0,0,1,1.34-1.6,1.0275,1.0275,0,0,0,1.0355.1414l3.5595,6.3553a1.8719,1.8719,0,0,0,.5657,3.3891c-0.0835,1.0528-.1505,2.0363-0.1692,3.0241a14.9687,14.9687,0,0,0,.2094,2.71,1.0375,1.0375,0,0,0-.5175.3677l-8.9059-5.147a1.0361,1.0361,0,0,0-.6951-1.4178,7.4841,7.4841,0,0,1,.2167-0.9453c0.1964-.6377.3946-1.22,0.5982-1.769A1.0393,1.0393,0,0,0,37.12,57.0938Zm-1.49,6.7709q0.0235-.412.06-0.8261c0.0349-.4048.0784-0.8091,0.1241-1.212l0.0019,0a1.0366,1.0366,0,0,0,.8323-0.4213l8.906,5.147a1.0295,1.0295,0,0,0,.0768.9678l-7.3145,5.906a0.7,0.7,0,0,0-.6109-0.1054c-0.0494-.1175-0.1-0.2344-0.1534-0.35a19.8231,19.8231,0,0,1-1.4307-4.2833c-0.1995-.9622-0.3153-1.9314-0.394-2.6682A13.1154,13.1154,0,0,1,35.63,63.8647ZM50.7816,74.3384l1.9193-7.2a1.0082,1.0082,0,0,0,.9476-0.323c0.2569,0.2165.5175,0.4294,0.7847,0.63,0.72,0.542,1.4821,1.0519,2.2187,1.5451q0.1339,0.09.2675,0.18a1.8724,1.8724,0,0,0,3.3039,1.7531c0.6268,0.2642,1.3067.5375,2,.7822a16.2148,16.2148,0,0,0,3.7638.8407c0.2445,0.0248.4956,0.0481,0.75,0.07a1.0336,1.0336,0,0,0,.0553.2844l-11.61,5.5684a1.0357,1.0357,0,0,0-1.6283-.1651c-0.1851-.1457-0.37-0.2926-0.5551-0.4461a15.7661,15.7661,0,0,1-1.8515-1.8308A1.0373,1.0373,0,0,0,50.7816,74.3384ZM85.5542,62.0433a1.0409,1.0409,0,0,0-1.0211.8413l-9.8878-.7686,0.0006-.0121a1.8676,1.8676,0,0,0-.6287-1.3978c0.8052-.8788,1.5633-1.715,1.6061-1.78,0.1008-.1534.2044-0.3054,0.308-0.4575A12.8422,12.8422,0,0,0,76.7,57.244c0.4711-.8938,1.01-1.9368,1.4443-3.0037,0.0122-.03.0235-0.0612,0.0355-0.0914a1.0223,1.0223,0,0,0,1.3324-.6741l8.2336,1.5208-0.0012.0123a0.729,0.729,0,0,0,.5838.7143A21.3746,21.3746,0,0,1,85.9423,62.12,1.0361,1.0361,0,0,0,85.5542,62.0433Zm3.1125-12.4166a23.2929,23.2929,0,0,1-.1106,4.6606,0.6868,0.6868,0,0,0-.7652.4722l-8.2349-1.521c0.0015-.0231.0069-0.0452,0.0069-0.0687a1.0381,1.0381,0,0,0-.7575-0.9972c0.1078-.4369.2049-0.897,0.2916-1.3845a18.0419,18.0419,0,0,0,.3292-3.429c-0.0141-1.0242-.113-2.0444-0.2079-2.9071q-0.0255-.2325-0.0594-0.4682l-0.0026-.0161q-0.033-.2277-0.0735-0.4588l-0.0069-.0357c-0.0264-.1479-0.0549-0.2968-0.0862-0.4471l-0.0114-.0512c-0.0308-.1454-0.0632-0.2917-0.0986-0.44l-0.012-.048a1.037,1.037,0,0,0,.5609-0.4758l7.6731,3.1478a0.7287,0.7287,0,0,0,.7142.8743,0.7225,0.7225,0,0,0,.2454-0.0453A21.8743,21.8743,0,0,1,88.6667,49.6267ZM72.6889,29.7981c0.7859,0.242,1.4159.464,1.9826,0.6985a22.1087,22.1087,0,0,1,3.9609,2.1346,23.2279,23.2279,0,0,1,6.5208,6.6636,22.7585,22.7585,0,0,1,2.51,5.2977,0.727,0.727,0,0,0-.4724.3432L79.52,41.789a1.03,1.03,0,0,0,.0428-0.28A1.0309,1.0309,0,0,0,78.2763,40.5l-0.0029-.0077-0.0141-.0418c-0.0584-.1666-0.1253-0.3314-0.1883-0.4971-0.0519-.1361-0.1-0.2733-0.1548-0.4084-0.072-.1775-0.1518-0.3528-0.229-0.5288-0.0589-.1344-0.1142-0.27-0.176-0.4033-0.067-.1441-0.1407-0.2856-0.2112-0.4285-0.08-.1619-0.1566-0.3252-0.2405-0.485-0.076-.1446-0.1588-0.286-0.2382-0.4291S76.6641,36.98,76.58,36.837l-0.0157-.0263-0.01-.0172c-0.0589-.1-0.1172-0.1948-0.1757-0.2912-0.03-.0494-0.06-0.1007-0.09-0.1493-0.0592-.0962-0.1182-0.1883-0.1772-0.2812-0.0344-.0542-0.069-0.11-0.1034-0.1635-0.0558-.0861-0.1115-0.1686-0.1672-0.252-0.0373-.0559-0.0747-0.1135-0.112-0.1682-0.0523-.0767-0.1048-0.15-0.1572-0.2244-0.0408-.0579-0.0815-0.1174-0.1222-0.174-0.0492-.0681-0.0986-0.133-0.1479-0.1993l-0.0226-.03a1.0394,1.0394,0,0,0-1.3487-1.5737c-0.0681-.0714-0.1347-0.1442-0.2034-0.215-0.5886-.606-1.2-1.1872-1.8234-1.7346a20.7324,20.7324,0,0,0-2.151-1.601c-0.3341-.2235-0.6822-0.4286-1.0292-0.6287a0.7246,0.7246,0,0,0,.0421-0.2142c0.5077,0.07,1.0239.1455,1.5259,0.2491C71.1,29.3092,71.9079,29.5578,72.6889,29.7981Zm-6.3843-1.5794c0.3071,0.1248.6139,0.2493,0.9222,0.3705L67.35,28.6362a0.7206,0.7206,0,0,0-.04.2266,0.7261,0.7261,0,0,0,1.2947.4543c0.3427,0.1975.686,0.4,1.0133,0.619a20.459,20.459,0,0,1,2.1261,1.5817c0.6909,0.606,1.3638,1.2556,2.01,1.9328a1.0166,1.0166,0,0,0-.1158,1.1894l-6.9283,5.0874a1.0223,1.0223,0,0,0-1.0541-.3871L61.3942,27.1718a0.7263,0.7263,0,0,0,.3363-0.3995,18.0218,18.0218,0,0,1,2.5345.6619C64.9527,27.67,65.64,27.9488,66.3046,28.2188ZM37.24,38.7923a22.6262,22.6262,0,0,1,4.1287-5.623A23.2253,23.2253,0,0,1,53.63,26.7552a22.5494,22.5494,0,0,1,5.2708-.3134q0.7268,0.0391,1.4165.1187a0.7242,0.7242,0,0,0,.1989.4764l-4.9227,6.5363a1.0332,1.0332,0,0,0-1.39.6941c-0.457-.0644-0.9268-0.1173-1.4152-0.1566-0.5576-.0452-1.109-0.0552-1.6247-0.0474-0.5221.0079-1.0076,0.0341-1.4253,0.0613-0.5132.0334-1.0351,0.0921-1.5692,0.1752a1.0389,1.0389,0,0,0-2.0339.4237c-0.2959.0759-.5951,0.1564-0.901,0.2464a20.9634,20.9634,0,0,0-6.7877,3.4964c-0.4591.347-.8933,0.7392-1.3129,1.1182-0.0606.0548-.1222,0.1082-0.1829,0.1628a0.7319,0.7319,0,0,0-.1209-0.1009C36.9615,39.3606,37.0958,39.072,37.24,38.7923Zm-6.752,12.7162a21.8892,21.8892,0,0,1,1.3651-4.1942,22.1774,22.1774,0,0,1,4.24-6.39l0.0157-.018a0.7179,0.7179,0,0,0,.1038.0406l0.7337,14.082a1.0365,1.0365,0,0,0-.2817,1.9561c-0.2049.5527-.4045,1.1387-0.6018,1.78a7.7079,7.7079,0,0,0-.2249.9818l-0.0221-.0022a1.0406,1.0406,0,0,0-.9633.6482l-4.0736-1.1348a0.6968,0.6968,0,0,0-.7115-0.8041c-0.0436-.4943-0.0776-0.9939-0.092-1.5024A22.9125,22.9125,0,0,1,30.4876,51.5085Zm5.08,19.9735a19.9453,19.9453,0,0,1-2.4692-3.46,23.2454,23.2454,0,0,1-2.6926-7.139c-0.065-.3267-0.122-0.66-0.1729-0.997A0.7274,0.7274,0,0,0,30.716,59.49l4.0747,1.1351a1.0121,1.0121,0,0,0,.7846,1.1713c-0.0775.6821-.1463,1.37-0.1855,2.055a13.33,13.33,0,0,0,.0984,2.1938c0.0792,0.7425.1962,1.7192,0.3978,2.6917a20.0642,20.0642,0,0,0,1.4476,4.3354c0.053,0.1148.1029,0.2312,0.1521,0.3479l-0.0083.0068-0.2665-.2619,0.0042,0.0069-0.02-.02C36.6515,72.6126,36.09,72.0558,35.5681,71.482Zm7.5485,8.9463a21.2008,21.2008,0,0,1-3.8178-4.3622c-0.31-.4737-0.6083-0.9676-0.8966-1.4455l-0.0306-.05a0.7248,0.7248,0,0,0,.24-0.4022L49.359,75.3149a1.0407,1.0407,0,0,0,.8239,1.0082l-0.6976,7.4341a0.7245,0.7245,0,0,0-.5709.3518A22.845,22.845,0,0,1,43.1166,80.4283Zm12.032,5.4334a22.7831,22.7831,0,0,1-4.9025-1.2139,0.718,0.718,0,0,0-.521-0.8687l0.6976-7.4352a1.0338,1.0338,0,0,0,.5385-0.1645,16.0157,16.0157,0,0,0,1.884,1.8635c0.1882,0.1562.3767,0.3058,0.5651,0.454a1.0324,1.0324,0,0,0,1.078,1.5493l1.6653,5.489a0.7268,0.7268,0,0,0-.36.4026C55.5818,85.9153,55.3675,85.8905,55.1486,85.8617ZM65.9,84.7386a22.3564,22.3564,0,0,1-4.1853,1.0545c-0.839.1208-1.6713,0.18-2.5942,0.2382a17.8213,17.8213,0,0,1-1.9289.0145,0.7286,0.7286,0,0,0-.7148-0.5891,0.7187,0.7187,0,0,0-.0926.0093l-1.6651-5.4883a1.0393,1.0393,0,0,0,.3658-0.2719c0.1673,0.11.3346,0.22,0.5007,0.3228a19.9621,19.9621,0,0,0,3.0335,1.57,27.5731,27.5731,0,0,0,3.5455,1.0961,18.152,18.152,0,0,0,2.3508.37l0.2909,0.0329c0.1679,0.0192.3308,0.0353,0.4907,0.0493,0.048,0.0042.0942,0.0071,0.1416,0.0108,0.113,0.0089.225,0.0171,0.3343,0.0233,0.0482,0.0027.0954,0.0046,0.1429,0.0068,0.1063,0.005.2117,0.009,0.315,0.0114,0.047,0.0011.0937,0.0017,0.14,0.0023,0.0489,0.0006.0992,0.0024,0.1476,0.0024,0.0775,0,.1544-0.0009.23-0.0023,0.8273-.0162,1.6656-0.0782,2.4765-0.1384l0.2695-.02c0.0216-.0016.0429-0.0057,0.0644-0.008,0.0069,0.0163.0172,0.0307,0.0252,0.0464A25.1285,25.1285,0,0,1,65.9,84.7386Zm17.7854-9.7522a4.7343,4.7343,0,0,1-.3766.4189c-0.074.0761-.148,0.152-0.219,0.23-0.0656.0721-.1283,0.1471-0.191,0.2223a3.694,3.694,0,0,1-.3428.3748c-0.6459.5865-1.3134,1.1694-1.9588,1.733a19.5045,19.5045,0,0,1-2.679,1.8773,19.8652,19.8652,0,0,1-5.6115,2.37c-0.4593.1133-.9315,0.21-1.3893,0.3033a0.7262,0.7262,0,0,0-.3235-0.394l3.5018-9.3641a1.0279,1.0279,0,0,0,1.2464-1.29q0.67-.2508,1.345-0.5587a1.0332,1.0332,0,0,0,1.7881-.0206l5.7785,2.47a0.7049,0.7049,0,0,0,.1188.7014C84.1454,74.3708,83.9187,74.681,83.6854,74.9864ZM89.0694,61.411a19.9023,19.9023,0,0,1-.3637,2.9245c-0.2239,1.0942-.55,2.1915-0.8679,3.2142a16.5677,16.5677,0,0,1-.8693,2.268,20.6214,20.6214,0,0,1-1.7637,3.1106,0.7175,0.7175,0,0,0-.8319.22l-5.8036-2.4809a0.9929,0.9929,0,0,0-.0382-0.7063,20.4676,20.4676,0,0,0,2.9558-2.0947q0.2289-.1945.4519-0.3951a21.1092,21.1092,0,0,0,2.81-3.0768c0.1-.1341.1969-0.2712,0.2938-0.4083a1.03,1.03,0,0,0,.5116.1394,1.04,1.04,0,0,0,.5993-1.8906c0.1305-.23.2583-0.4627,0.3812-0.6993q0.4735-.9121.8686-1.8832c0.1214-.2983.2344-0.6021,0.3427-0.91,0.0162-.0461.0332-0.0919,0.0492-0.1382q0.15-.4344.2819-0.884,0.03-.101.0591-0.2029c0.0832-.2914.1623-0.5873,0.2357-0.89,0.0191-.0787.0369-0.1591,0.0554-0.2385q0.0759-.3268.1444-0.6631a0.7257,0.7257,0,0,0,.1147-0.0254c0.0687,0.3668.1369,0.7386,0.194,1.1083a12.8239,12.8239,0,0,1,.16,1.515L89.0537,58.71C89.0847,59.5971,89.1169,60.5149,89.0694,61.411Z" transform="translate(-29.3288 -25.8074)"/>
  </g>
</svg>
